<svg width="25" height="25" viewBox="0 0 25 25" fill="none" xmlns="http://www.w3.org/2000/svg">
<path d="M22.447 9.679C22.3842 9.49387 22.2685 9.33119 22.1142 9.21106C21.96 9.09093 21.7739 9.0186 21.579 9.003L15.878 8.55L13.411 3.089C13.3325 2.91311 13.2047 2.76372 13.0431 2.65886C12.8815 2.55399 12.693 2.49814 12.5004 2.49803C12.3077 2.49793 12.1192 2.55358 11.9575 2.65826C11.7957 2.76295 11.6678 2.9122 11.589 3.088L9.12203 8.55L3.42103 9.003C3.22948 9.01817 3.04636 9.08821 2.89358 9.20473C2.7408 9.32125 2.62482 9.47932 2.55952 9.66003C2.49422 9.84074 2.48236 10.0364 2.52537 10.2237C2.56838 10.411 2.66443 10.5819 2.80203 10.716L7.01503 14.823L5.52503 21.275C5.47978 21.4703 5.49428 21.6747 5.56665 21.8616C5.63901 22.0486 5.76589 22.2095 5.93083 22.3234C6.09577 22.4374 6.29115 22.4991 6.49161 22.5007C6.69208 22.5022 6.88837 22.4434 7.05503 22.332L12.5 18.702L17.945 22.332C18.1154 22.4451 18.3162 22.5033 18.5207 22.4988C18.7251 22.4944 18.9232 22.4274 19.0884 22.3069C19.2536 22.1865 19.378 22.0183 19.4448 21.8251C19.5116 21.6318 19.5176 21.4228 19.462 21.226L17.633 14.826L22.169 10.744C22.466 10.476 22.575 10.058 22.447 9.679Z" fill="white"/>
</svg>
